<svg width="50" height="50" viewBox="0 0 50 50" fill="none" xmlns="http://www.w3.org/2000/svg">
<path fill-rule="evenodd" clip-rule="evenodd" d="M50 25C50 38.8071 38.8071 50 25 50C11.1929 50 0 38.8071 0 25C0 11.1929 11.1929 0 25 0C38.8071 0 50 11.1929 50 25ZM34.5333 33.5333V19.6667H20.6667V18.8C20.6667 17.3665 21.8332 16.2 23.2667 16.2H25.8667V11H23.2667C18.9663 11 15.4667 14.4996 15.4667 18.8V19.6667H12V24.8667H15.4667V33.5333H12V38.7333H24.1333V33.5333H20.6667V24.8667H29.3819V33.5333H25.8667V38.7333H38V33.5333H34.5333ZM34.534 13.6C34.534 15.0359 33.37 16.2 31.934 16.2C30.4981 16.2 29.334 15.0359 29.334 13.6C29.334 12.1641 30.4981 11 31.934 11C33.37 11 34.534 12.1641 34.534 13.6Z" fill="black"/>
</svg>
