<svg width="40" height="43" viewBox="0 0 40 43" fill="none" xmlns="http://www.w3.org/2000/svg">
<path d="M34.1506 34.1506V13.1348H13.1348V11.8214C13.1348 9.64885 14.9028 7.88091 17.0753 7.88091H21.0157V0H17.0753C10.5578 0 5.25394 5.30385 5.25394 11.8214V13.1348H0V21.0157H5.25394V34.1506H0V42.0315H18.3888V34.1506H13.1348V21.0157H26.3432V34.1506H21.0157V42.0315H39.4045V34.1506H34.1506Z" fill="black"/>
<path d="M30.211 7.8809C32.3872 7.8809 34.1514 6.1167 34.1514 3.94045C34.1514 1.7642 32.3872 0 30.211 0C28.0347 0 26.2705 1.7642 26.2705 3.94045C26.2705 6.1167 28.0347 7.8809 30.211 7.8809Z" fill="black"/>
</svg>
