<svg width="66" height="66" viewBox="0 0 66 66" fill="none" xmlns="http://www.w3.org/2000/svg">
<path d="M46.2 45.2V26H27V24.8C27 22.8152 28.6152 21.2 30.6 21.2H34.2V14H30.6C24.6456 14 19.8 18.8456 19.8 24.8V26H15V33.2H19.8V45.2H15V52.4H31.8V45.2H27V33.2H39.0672V45.2H34.2V52.4H51V45.2H46.2Z" fill="black"/>
<path d="M42.601 21.2C44.5892 21.2 46.201 19.5882 46.201 17.6C46.201 15.6118 44.5892 14 42.601 14C40.6128 14 39.001 15.6118 39.001 17.6C39.001 19.5882 40.6128 21.2 42.601 21.2Z" fill="black"/>
<circle cx="33" cy="33" r="32" stroke="#573434" stroke-width="2"/>
</svg>
