<svg width="50" height="49" viewBox="0 0 50 49" fill="none" xmlns="http://www.w3.org/2000/svg">
<path d="M25 0C11.1875 0 0 11.0366 0 24.6485C0 35.5409 7.1625 44.7778 17.0937 48.0344C18.3437 48.2664 18.8021 47.5035 18.8021 46.8492C18.8021 46.2639 18.7812 44.713 18.7708 42.6582C11.8167 44.1444 10.35 39.3514 10.35 39.3514C9.2125 36.5066 7.56875 35.7457 7.56875 35.7457C5.30417 34.2177 7.74375 34.2491 7.74375 34.2491C10.2542 34.4205 11.5729 36.7887 11.5729 36.7887C13.8021 40.5575 17.425 39.4685 18.8542 38.8393C19.0792 37.2444 19.7229 36.1596 20.4375 35.5429C14.8854 34.9263 9.05 32.8068 9.05 23.3629C9.05 20.6728 10.0187 18.4738 11.6229 16.7493C11.3417 16.1264 10.4979 13.6202 11.8417 10.2256C11.8417 10.2256 13.9354 9.56507 18.7167 12.7527C20.7167 12.2051 22.8417 11.9334 24.9667 11.9208C27.0917 11.9334 29.2167 12.2051 31.2167 12.7527C35.9667 9.56507 38.0604 10.2256 38.0604 10.2256C39.4042 13.6202 38.5604 16.1264 38.3104 16.7493C39.9042 18.4738 40.8729 20.6728 40.8729 23.3629C40.8729 32.8319 35.0292 34.9159 29.4667 35.522C30.3417 36.262 31.1542 37.7733 31.1542 40.083C31.1542 43.3815 31.1229 46.0319 31.1229 46.8325C31.1229 47.4784 31.5604 48.2497 32.8417 48.003C42.8437 44.7673 50 35.5241 50 24.6485C50 11.0366 38.8062 0 25 0V0Z" fill="black"/>
</svg>
