<svg width="66" height="66" viewBox="0 0 66 66" fill="none" xmlns="http://www.w3.org/2000/svg">
<path d="M33 9C19.1875 9 8 20.0366 8 33.6485C8 44.5409 15.1625 53.7778 25.0938 57.0344C26.3438 57.2664 26.8021 56.5035 26.8021 55.8492C26.8021 55.2639 26.7812 53.713 26.7708 51.6582C19.8167 53.1444 18.35 48.3514 18.35 48.3514C17.2125 45.5066 15.5687 44.7457 15.5687 44.7457C13.3042 43.2177 15.7437 43.2491 15.7437 43.2491C18.2542 43.4205 19.5729 45.7887 19.5729 45.7887C21.8021 49.5575 25.425 48.4685 26.8542 47.8393C27.0792 46.2444 27.7229 45.1596 28.4375 44.5429C22.8854 43.9263 17.05 41.8068 17.05 32.3629C17.05 29.6728 18.0187 27.4738 19.6229 25.7493C19.3417 25.1264 18.4979 22.6202 19.8417 19.2256C19.8417 19.2256 21.9354 18.5651 26.7167 21.7527C28.7167 21.2051 30.8417 20.9334 32.9667 20.9208C35.0917 20.9334 37.2167 21.2051 39.2167 21.7527C43.9667 18.5651 46.0604 19.2256 46.0604 19.2256C47.4042 22.6202 46.5604 25.1264 46.3104 25.7493C47.9042 27.4738 48.8729 29.6728 48.8729 32.3629C48.8729 41.8319 43.0292 43.9159 37.4667 44.522C38.3417 45.262 39.1542 46.7733 39.1542 49.083C39.1542 52.3815 39.1229 55.0319 39.1229 55.8325C39.1229 56.4784 39.5604 57.2497 40.8417 57.003C50.8438 53.7673 58 44.5241 58 33.6485C58 20.0366 46.8062 9 33 9Z" fill="black"/>
<circle cx="33" cy="33" r="32" stroke="#573434" stroke-width="2"/>
</svg>
