<svg width="66" height="66" viewBox="0 0 66 66" fill="none" xmlns="http://www.w3.org/2000/svg">
<path d="M33 8C19.195 8 8 19.195 8 33C8 46.805 19.195 58 33 58C46.805 58 58 46.805 58 33C58 19.195 46.805 8 33 8ZM25.7353 45.793H19.6467V27.4752H25.7353V45.793ZM22.6912 24.9739H22.6515C20.6083 24.9739 19.2869 23.5674 19.2869 21.8096C19.2869 20.0121 20.6488 18.6445 22.7316 18.6445C24.8144 18.6445 26.0962 20.0121 26.1358 21.8096C26.1358 23.5674 24.8144 24.9739 22.6912 24.9739ZM47.6896 45.793H41.6018V35.9934C41.6018 33.5306 40.7202 31.851 38.5172 31.851C36.8353 31.851 35.8336 32.984 35.3933 34.0777C35.2324 34.469 35.1931 35.0161 35.1931 35.5635V45.793H29.1048C29.1048 45.793 29.1845 29.1937 29.1048 27.4752H35.1931V30.0688C36.0022 28.8206 37.4498 27.0453 40.6801 27.0453C44.6859 27.0453 47.6896 29.6633 47.6896 35.2896V45.793Z" fill="black"/>
<circle cx="33" cy="33" r="32" stroke="#573434" stroke-width="2"/>
</svg>
