<svg width="50" height="51" viewBox="0 0 50 51" fill="none" xmlns="http://www.w3.org/2000/svg">
<path d="M34.9802 21.751C32.1576 21.751 31.2503 24.4727 31.0487 26.0857V26.1865L30.6455 27.6986C31.8552 28.7066 33.3673 29.4123 34.8794 29.4123C36.8955 29.4123 38.71 27.6986 38.8108 25.4808C38.8108 23.4647 37.0971 21.751 34.9802 21.751Z" fill="black"/>
<path d="M25 0.682373C11.1895 0.682373 0 11.8719 0 25.6824C0 39.4929 11.1895 50.6824 25 50.6824C38.8105 50.6824 50 39.4929 50 25.6824C50 11.8719 38.8105 0.682373 25 0.682373ZM34.9798 33.3437C32.9637 33.3437 31.25 32.7388 29.7379 31.8316L28.0242 39.8961H24.0927L26.5121 28.8074C25.504 27.3961 24.496 25.7832 23.7903 24.2711V25.9848C23.7903 30.1179 20.4637 33.4445 16.4315 33.4445C12.3992 33.4445 9.07258 30.1179 9.07258 25.9848V15.9041H12.9032V25.9848C12.9032 28.0009 14.5161 29.6138 16.5323 29.6138C18.5484 29.6138 20.1613 28.0009 20.1613 25.9848V15.9041H23.9919C24.7984 18.4243 26.1089 21.4485 27.8226 24.1703C28.8306 20.3396 31.6532 18.0211 35.1815 18.0211C39.3145 18.0211 42.7419 21.4485 42.7419 25.5816C42.5403 29.9162 39.1129 33.3437 34.9798 33.3437Z" fill="black"/>
</svg>
