<svg width="66" height="66" viewBox="0 0 66 66" fill="none" xmlns="http://www.w3.org/2000/svg">
<path d="M42.9802 28.751C40.1576 28.751 39.2503 31.4727 39.0487 33.0857V33.1865L38.6455 34.6986C39.8552 35.7066 41.3673 36.4123 42.8794 36.4123C44.8955 36.4123 46.71 34.6986 46.8108 32.4808C46.8108 30.4647 45.0971 28.751 42.9802 28.751Z" fill="black"/>
<path d="M33 7.68237C19.1895 7.68237 8 18.8719 8 32.6824C8 46.4929 19.1895 57.6824 33 57.6824C46.8105 57.6824 58 46.4929 58 32.6824C58 18.8719 46.8105 7.68237 33 7.68237ZM42.9798 40.3437C40.9637 40.3437 39.25 39.7388 37.7379 38.8316L36.0242 46.8961H32.0927L34.5121 35.8074C33.504 34.3961 32.496 32.7832 31.7903 31.2711V32.9848C31.7903 37.1179 28.4637 40.4445 24.4314 40.4445C20.3992 40.4445 17.0726 37.1179 17.0726 32.9848V22.9041H20.9032V32.9848C20.9032 35.0009 22.5161 36.6138 24.5323 36.6138C26.5484 36.6138 28.1613 35.0009 28.1613 32.9848V22.9041H31.9919C32.7984 25.4243 34.1089 28.4485 35.8226 31.1703C36.8306 27.3396 39.6532 25.0211 43.1815 25.0211C47.3145 25.0211 50.7419 28.4485 50.7419 32.5816C50.5403 36.9162 47.1129 40.3437 42.9798 40.3437Z" fill="black"/>
<circle cx="33" cy="33" r="32" stroke="#573434" stroke-width="2"/>
</svg>
