<svg width="50" height="50" viewBox="0 0 50 50" fill="none" xmlns="http://www.w3.org/2000/svg">
<path d="M34.9802 21.0684C32.1576 21.0684 31.2503 23.7901 31.0487 25.403V25.5038L30.6455 27.0159C31.8552 28.024 33.3673 28.7296 34.8794 28.7296C36.8955 28.7296 38.71 27.0159 38.8108 24.7982C38.8108 22.7821 37.0971 21.0684 34.9802 21.0684Z" fill="white"/>
<path d="M25 0C11.1895 0 0 11.1895 0 25C0 38.8105 11.1895 50 25 50C38.8105 50 50 38.8105 50 25C50 11.1895 38.8105 0 25 0ZM34.9798 32.6613C32.9637 32.6613 31.25 32.0564 29.7379 31.1492L28.0242 39.2137H24.0927L26.5121 28.125C25.504 26.7137 24.496 25.1008 23.7903 23.5887V25.3024C23.7903 29.4355 20.4637 32.7621 16.4315 32.7621C12.3992 32.7621 9.07258 29.4355 9.07258 25.3024V15.2218H12.9032V25.3024C12.9032 27.3185 14.5161 28.9315 16.5323 28.9315C18.5484 28.9315 20.1613 27.3185 20.1613 25.3024V15.2218H23.9919C24.7984 17.7419 26.1089 20.7661 27.8226 23.4879C28.8306 19.6573 31.6532 17.3387 35.1815 17.3387C39.3145 17.3387 42.7419 20.7661 42.7419 24.8992C42.5403 29.2339 39.1129 32.6613 34.9798 32.6613Z" fill="white"/>
</svg>
